<mxfile host="app.diagrams.net" modified="2023-05-12T21:19:28.035Z" agent="Mozilla/5.0 (Windows NT 10.0; Win64; x64) AppleWebKit/537.36 (KHTML, like Gecko) Chrome/109.0.0.0 Safari/537.36" version="21.3.0" etag="NV7AAoRTtV5Mn9cL29oR" type="github">
  <diagram name="Page-1" id="km-ag-9fpnkwKuSsWHVC">
    <mxGraphModel>
      <root>
        <mxCell id="0" />
        <mxCell id="1" parent="0" />
      </root>
    </mxGraphModel>
  </diagram>
</mxfile>
